Coordinates
version=1
nRows=29
nColumns=24
inDegrees=yes

Units are S.I. units (second, meters, Newtons, ...)
Angles are in degrees.

endheader
time	pelvis_tilt	pelvis_list	pelvis_rotation	pelvis_tx	pelvis_ty	pelvis_tz	hip_flexion_r	hip_adduction_r	hip_rotation_r	knee_angle_r	ankle_angle_r	subtalar_angle_r	mtp_angle_r	hip_flexion_l	hip_adduction_l	hip_rotation_l	knee_angle_l	ankle_angle_l	subtalar_angle_l	mtp_angle_l	lumbar_extension	lumbar_bending	lumbar_rotation
      5.31500000	     11.88756670	     12.37981515	     14.12858136	      1.20082968	      0.73412389	     -0.25686668	     16.46423908	    -17.60412500	    -14.77077736	    -13.80188122	     22.54688200	     19.19767088	      0.00000000	    -31.07707576	      7.26218642	     14.00464450	    -15.93027034	     31.22301143	     18.73511935	      0.00000000	    -30.63917111	     -3.91010786	    -25.79077800
      5.32000000	     12.02046051	     12.09375564	     14.35022643	      1.21039580	      0.73388590	     -0.25609548	     16.11772336	    -17.10096402	    -15.00473138	    -14.18263721	     22.20728623	     19.00146641	      0.00000000	    -31.30985154	      6.60974033	     13.93791767	    -16.98645578	     30.70903959	     19.08481867	      0.00000000	    -30.38974671	     -3.73649531	    -25.64890111
      5.32500000	     12.12420230	     11.80560582	     14.52369261	      1.22000628	      0.73365711	     -0.25529572	     15.83265947	    -16.58315429	    -15.08568863	    -14.68417646	     21.76166664	     18.61043571	      0.00000000	    -31.45642543	      6.01321078	     13.86156632	    -18.12997276	     30.01056708	     19.29255831	      0.00000000	    -30.10234277	     -3.59067257	    -25.46891942
      5.33000000	     12.22125374	     11.48768589	     14.66880059	      1.22961960	      0.73345216	     -0.25448145	     15.56603143	    -16.01271490	    -15.04200567	    -15.25655326	     21.22473032	     17.92105569	      0.00000000	    -31.50159696	      5.43411517	     13.76133434	    -19.42190189	     29.21709360	     19.46402495	      0.00000000	    -29.80133345	     -3.42392580	    -25.25387404
      5.33500000	     12.30098286	     11.16626027	     14.77129361	      1.23921483	      0.73325439	     -0.25360675	     15.35676157	    -15.41664509	    -14.80031723	    -15.94304097	     20.63055429	     16.97495841	      0.00000000	    -31.44592182	      4.89849666	     13.59716235	    -20.83650203	     28.28957404	     19.57156500	      0.00000000	    -29.49280027	     -3.27498853	    -25.00575827
      5.34000000	     12.35275855	     10.82391676	     14.86314726	      1.24877618	      0.73308454	     -0.25277135	     15.18292553	    -14.80545242	    -14.53175927	    -16.68520023	     19.96858112	     15.97169537	      0.00000000	    -31.26730456	      4.40224990	     13.50181220	    -22.39567761	     27.22557246	     19.55609850	      0.00000000	    -29.15802027	     -3.11090578	    -24.69391597
      5.34500000	     12.38761325	     10.46152981	     14.92545973	      1.25828084	      0.73293717	     -0.25190678	     15.05770990	    -14.15818915	    -14.12789484	    -17.50699629	     19.26151156	     14.80321591	      0.00000000	    -30.97458529	      3.93457759	     13.36207519	    -24.08189556	     25.99925332	     19.47171629	      0.00000000	    -28.82054561	     -2.93443837	    -24.35736449
      5.35000000	     12.41508974	     10.07154661	     14.96517241	      1.26771399	      0.73282724	     -0.25104553	     14.95733513	    -13.47656595	    -13.67573614	    -18.37639566	     18.54839163	     13.60060040	      0.00000000	    -30.57265845	      3.49185987	     13.23527781	    -25.90021314	     24.63203049	     19.28919618	      0.00000000	    -28.48621616	     -2.73075957	    -23.96975469
      5.35500000	     12.42587658	      9.66339006	     14.97774395	      1.27704842	      0.73272983	     -0.25013356	     14.91085397	    -12.75738050	    -13.08850721	    -19.32097527	     17.86995113	     12.27425099	      0.00000000	    -30.04923642	      3.07024463	     13.04058819	    -27.83714889	     23.12729971	     19.04400500	      0.00000000	    -28.16000737	     -2.51939191	    -23.56407792
      5.36000000	     12.44663458	      9.20907280	     14.98525221	      1.28628341	      0.73269320	     -0.24926448	     14.85989315	    -11.99493461	    -12.55394754	    -20.28488958	     17.22361746	     11.06649132	      0.00000000	    -29.43524266	      2.64469137	     12.87475572	    -29.87892902	     21.49258832	     18.64074350	      0.00000000	    -27.85591098	     -2.23987286	    -23.13571221
      5.36500000	     12.43910247	      8.74834370	     14.96156862	      1.29541933	      0.73267036	     -0.24833180	     14.85226187	    -11.20120639	    -11.89380546	    -21.26884879	     16.70153348	      9.78069843	      0.00000000	    -28.69682834	      2.24813787	     12.66057398	    -32.00635112	     19.69437893	     18.25675035	      0.00000000	    -27.55121124	     -1.97183588	    -22.68328932
      5.37000000	     12.46694417	      8.22138220	     14.95201158	      1.30440714	      0.73271448	     -0.24748345	     14.80918967	    -10.35575325	    -11.38257062	    -22.25690459	     16.21911669	      8.72481772	      0.00000000	    -27.89008628	      1.81576109	     12.47193259	    -34.22390051	     17.87726327	     17.58524271	      0.00000000	    -27.29970630	     -1.58788304	    -22.23403403
      5.37500000	     12.45576115	      7.68605037	     14.92938443	      1.31329502	      0.73278352	     -0.24659025	     14.78790582	     -9.48046785	    -10.78577650	    -23.20125378	     15.90372494	      7.63700584	      0.00000000	    -26.95819460	      1.40334292	     12.28006784	    -36.48725741	     15.92884664	     16.94242839	      0.00000000	    -27.03543409	     -1.21614467	    -21.75735658
      5.38000000	     12.46843710	      7.10529839	     14.91901565	      1.32203264	      0.73291037	     -0.24576019	     14.72612616	     -8.56942257	    -10.31376612	    -24.11099945	     15.69541837	      6.75537704	      0.00000000	    -25.96342760	      0.96609685	     12.10816905	    -38.79656528	     14.00650279	     16.09252423	      0.00000000	    -26.81945220	     -0.76094195	    -21.29258974
      5.38500000	     12.48143170	      6.49564044	     14.91679984	      1.33062900	      0.73308428	     -0.24496683	     14.63444258	     -7.63219744	     -9.91044888	    -24.95386182	     15.62297708	      6.01097712	      0.00000000	    -24.89219115	      0.52098448	     11.96138204	    -41.12697006	     12.12185490	     15.12246359	      0.00000000	    -26.63084004	     -0.25695467	    -20.83121840
      5.39000000	     12.54534627	      5.85027687	     14.92732175	      1.33907991	      0.73334549	     -0.24425737	     14.45538064	     -6.67439177	     -9.67734694	    -25.72631441	     15.67764979	      5.53890286	      0.00000000	    -23.80861555	      0.04598465	     11.83157931	    -43.45439821	     10.35277357	     13.99897727	      0.00000000	    -26.52012416	      0.32850817	    -20.38337190
      5.39500000	     12.50899106	      5.21165945	     14.94365514	      1.34738963	      0.73358762	     -0.24352766	     14.32756381	     -5.71383796	     -9.34740250	    -26.36973357	     15.86745148	      4.94223536	      0.00000000	    -22.55418204	     -0.37045680	     11.77952952	    -45.78585294	      8.66650903	     12.86819788	      0.00000000	    -26.33743528	      0.87515832	    -19.92277547
      5.40000000	     12.52411372	      4.54700693	     14.97324230	      1.35555557	      0.73392290	     -0.24290109	     14.10138080	     -4.74817128	     -9.19600121	    -26.92017414	     16.16767509	      4.60962019	      0.00000000	    -21.30441849	     -0.80417597	     11.75886776	    -48.08427082	      7.19198299	     11.62426228	      0.00000000	    -26.23237309	      1.49501843	    -19.47537580
      5.40500000	     12.53519038	      3.88268988	     15.01002463	      1.36358240	      0.73432177	     -0.24233679	     13.82309120	     -3.79416665	     -9.11645268	    -27.34785358	     16.56007008	      4.39229292	      0.00000000	    -20.00819065	     -1.21195542	     11.78422578	    -50.34409008	      5.93786759	     10.32754381	      0.00000000	    -26.15287106	      2.13072746	    -19.03015438
      5.41000000	     12.54346493	      3.22556210	     15.05149187	      1.37146629	      0.73478242	     -0.24183779	     13.49032974	     -2.85955285	     -9.10429499	    -27.65115603	     17.03248006	      4.27305923	      0.00000000	    -18.66889860	     -1.58497754	     11.85148203	    -52.56136120	      4.92642016	      9.00788044	      0.00000000	    -26.09881951	      2.77119917	    -18.58438530
      5.41500000	     12.62865936	      2.56151885	     15.06065565	      1.37925914	      0.73538975	     -0.24139994	     13.00968134	     -1.90750354	     -9.14253245	    -27.80223969	     17.56724836	      4.35316906	      0.00000000	    -17.39940070	     -1.95476840	     11.90663532	    -54.68886909	      4.19138147	      7.69562870	      0.00000000	    -26.14920923	      3.44806504	    -18.08795202
      5.42000000	     12.65284678	      1.93451204	     15.09125137	      1.38689982	      0.73601800	     -0.24102510	     12.53972331	     -1.01787284	     -9.21898661	    -27.84797993	     18.11807048	      4.39503656	      0.00000000	    -16.02685288	     -2.24588754	     12.02810377	    -56.77715597	      3.69156621	      6.36593630	      0.00000000	    -26.16751406	      4.08334205	    -17.61873441
      5.42500000	     12.60002183	      1.34535491	     15.13623874	      1.39440564	      0.73664098	     -0.24071864	     12.10855867	     -0.20588904	     -9.36499142	    -27.81526678	     18.68650747	      4.42389031	      0.00000000	    -14.53631260	     -2.45459130	     12.19656107	    -58.82095846	      3.41523660	      5.09398265	      0.00000000	    -26.13332987	      4.66630599	    -17.14812366
      5.43000000	     12.63075136	      0.77048518	     15.12236402	      1.40186428	      0.73742630	     -0.24042366	     11.51152191	      0.63087769	     -9.41500476	    -27.61334074	     19.28101984	      4.61740726	      0.00000000	    -13.14700081	     -2.64569935	     12.30851773	    -60.74056867	      3.41878204	      3.87961134	      0.00000000	    -26.20515336	      5.25005303	    -16.65455305
      5.43500000	     12.54401201	      0.24694493	     15.16230617	      1.40917943	      0.73815944	     -0.24021355	     11.00508113	      1.35647282	     -9.57238155	    -27.36493392	     19.86353824	      4.74935709	      0.00000000	    -11.58550830	     -2.74144053	     12.49808498	    -62.62525327	      3.58604478	      2.72961406	      0.00000000	    -26.17587301	      5.76714806	    -16.21036729
      5.44000000	     12.58293824	     -0.25525840	     15.10208096	      1.41649127	      0.73910029	     -0.24000339	     10.29715913	      2.10708013	     -9.63529833	    -26.97142824	     20.39677544	      5.00128596	      0.00000000	    -10.19600301	     -2.82635303	     12.56723803	    -64.34450972	      3.95627435	      1.64844699	      0.00000000	    -26.30233522	      6.26929472	    -15.63589710
      5.44500000	     12.58991576	     -0.71437363	     15.05035234	      1.42372053	      0.74006755	     -0.23982847	      9.58053214	      2.79899125	     -9.70230013	    -26.50667086	     20.89885690	      5.24494103	      0.00000000	     -8.75706743	     -2.85365480	     12.64371060	    -65.97603675	      4.46179343	      0.64465609	      0.00000000	    -26.41426496	      6.71998593	    -15.09363022
      5.45000000	     12.52080779	     -1.12942078	     15.01256181	      1.43088218	      0.74100548	     -0.23969470	      8.90997732	      3.41675749	     -9.77797040	    -25.99058468	     21.37876630	      5.46190964	      0.00000000	     -7.22119202	     -2.81456246	     12.73100769	    -67.52051437	      5.11017353	     -0.23333630	      0.00000000	    -26.45627646	      7.10948480	    -14.58587798
      5.45500000	     12.55419673	     -1.50032165	     14.88580266	      1.43803883	      0.74209999	     -0.23952598	      8.08272229	      4.02855938	     -9.73847851	    -25.39299951	     21.80619494	      5.74245689	      0.00000000	     -5.83175881	     -2.75661292	     12.69691630	    -68.90030515	      5.83031642	     -1.03763290	      0.00000000	    -26.63519845	      7.44710930	    -13.99584878
